<svg width="22" height="22" viewBox="0 0 22 22" fill="none" xmlns="http://www.w3.org/2000/svg">
<circle cx="11" cy="11" r="10" stroke="#B3B3B3" stroke-width="2" stroke-linecap="round" stroke-linejoin="round"/>
<path d="M8.37508 6.95952C7.98455 6.56899 7.35139 6.56899 6.96086 6.95952C6.57034 7.35004 6.57034 7.98321 6.96086 8.37373L8.37508 6.95952ZM13.6275 15.0404C14.0181 15.4309 14.6512 15.4309 15.0417 15.0404C15.4323 14.6499 15.4323 14.0167 15.0417 13.6262L13.6275 15.0404ZM15.0417 8.37373C15.4323 7.98321 15.4323 7.35004 15.0417 6.95952C14.6512 6.56899 14.0181 6.56899 13.6275 6.95952L15.0417 8.37373ZM6.96086 13.6262C6.57034 14.0167 6.57034 14.6499 6.96086 15.0404C7.35139 15.4309 7.98455 15.4309 8.37508 15.0404L6.96086 13.6262ZM6.96086 8.37373L13.6275 15.0404L15.0417 13.6262L8.37508 6.95952L6.96086 8.37373ZM13.6275 6.95952L6.96086 13.6262L8.37508 15.0404L15.0417 8.37373L13.6275 6.95952Z" fill="#B3B3B3"/>
</svg>
